<svg width="23" height="21" viewBox="0 0 23 21" fill="none" xmlns="http://www.w3.org/2000/svg">
<path d="M1.81001 7.52999L3.77001 9.85999C4.07001 10.21 4.07001 10.79 3.77001 11.14L1.81001 13.47C1.54001 14.01 1.81001 14.67 2.39001 14.87L3.72001 15.31C4.04001 15.42 4.51001 15.31 4.75001 15.07L7.03001 12.8C7.19001 12.63 7.51001 12.5 7.74001 12.5H10.59C11.01 12.5 11.21 12.81 11.05 13.2L8.93001 18.11C8.60001 18.88 9.01001 19.51 9.85001 19.51L11.14 19.51C11.81 19.51 12.58 19.01 12.84 18.39L15.25 12.8C15.294 12.7143 15.3595 12.6416 15.4402 12.589C15.5209 12.5364 15.6139 12.5057 15.71 12.5L18.71 12.5C19.65 12.5 20.76 11.81 21.19 10.97C21.34 10.67 21.34 10.32 21.19 10.02C20.76 9.17999 19.64 8.48999 18.7 8.48999H15.7C15.52 8.48999 15.31 8.34999 15.24 8.18999L12.83 2.60999C12.58 1.98999 11.81 1.48999 11.14 1.48999L9.85001 1.48999C9.01001 1.48999 8.60001 2.11999 8.93001 2.88999L11.05 7.79999C11.22 8.17999 11.01 8.49999 10.59 8.49999L7.74001 8.49999C7.51001 8.49999 7.19001 8.36999 7.03001 8.20999L4.75001 5.93999C4.51001 5.69999 4.05001 5.58999 3.72001 5.69999L2.39001 6.13999C1.81001 6.31999 1.53001 6.97999 1.81001 7.52999Z" stroke="white" stroke-width="1.5" stroke-linecap="round" stroke-linejoin="round"/>
</svg>
