<svg width="34" height="25" viewBox="0 0 34 25" fill="none" xmlns="http://www.w3.org/2000/svg">
<path d="M28.1628 5.52326H13.6512V13.9385H12.1055V11.0781C12.1037 9.45739 11.4591 7.9036 10.3132 6.75759C9.16718 5.61158 7.6134 4.96694 5.99272 4.96512H2.48837V0.5H0.255814V24.5H2.48837V21.1691L31.5116 21.4013V24.5H33.7442V11.1047C33.7425 9.62489 33.1539 8.20622 32.1076 7.15986C31.0612 6.11351 29.6426 5.52494 28.1628 5.52326ZM2.48837 7.19767H5.99272C7.02147 7.19884 8.00775 7.60802 8.73519 8.33546C9.46263 9.0629 9.87181 10.0492 9.87298 11.0779V13.9384H2.48837V7.19767ZM31.5116 19.1687L2.48837 18.9365V16.1711H31.5116V19.1687ZM31.5116 13.9385H15.8837V7.75581H28.1628C29.0506 7.75683 29.9018 8.10998 30.5297 8.73779C31.1575 9.3656 31.5106 10.2168 31.5116 11.1047V13.9385Z" fill="white"/>
</svg>
