<svg width="23" height="24" viewBox="0 0 23 24" fill="none" xmlns="http://www.w3.org/2000/svg">
<path d="M11.7227 10.3562V14.2978H18.0902C17.8307 15.9898 16.1648 19.2579 11.7227 19.2579C7.89436 19.2579 4.76673 16.0085 4.76673 11.9993C4.76673 7.99009 7.89365 4.74062 11.7227 4.74062C13.9034 4.74062 15.3652 5.68794 16.1978 6.51162L19.2412 3.50581C17.2871 1.63778 14.7549 0.5 11.7227 0.5C5.51935 0.5 0.5 5.63978 0.5 12C0.5 18.3602 5.51935 23.5 11.7227 23.5C18.1996 23.5 22.5 18.8353 22.5 12.2623C22.5 11.5062 22.4193 10.9298 22.3211 10.3569L11.7227 10.3562Z" fill="white"/>
</svg>
